<svg xmlns="http://www.w3.org/2000/svg" width="104.944" height="146.356" viewBox="0 0 104.944 146.356"><defs><style>.a{fill:#fff;}</style></defs><g transform="translate(-126.918 101.838) rotate(-47)"><path class="a" d="M167.931,100.931H148.52c-4.964,0-9.928-.214-14.875,0a78.3,78.3,0,0,0-25.285,6.053c-.839.339-1.786.8-2.071-.482a5.125,5.125,0,0,1,.536-2.786c.2-.446.946-.661,1.446-1,7.732-5.161,15.321-10.589,23.214-15.446a105.73,105.73,0,0,1,36.553-14.285c9.232-1.679,18.517-1.679,27.321,2.357a14.285,14.285,0,0,1,7.8,8.036c1.554,4.053-.964,9.607-5.357,12.393a35.8,35.8,0,0,1-14.839,4.643c-4.982.7-10.053.8-15.089,1.161Z" transform="translate(2.696 0)"/><path class="a" d="M106.183,102.223a2.732,2.732,0,0,1,2.125-3.7,35.714,35.714,0,0,1,7.786-1.7,152.295,152.295,0,0,1,17.125-.393,71.194,71.194,0,0,1,24.749,5.732,43.2,43.2,0,0,1,15.285,10.41c2.339,2.607,4.393,5.536,4.036,9.178-.554,5.661-4.482,9.393-11.018,8.178-7.25-1.339-13.178-5.357-18.785-9.857-7.036-5.607-13.91-11.428-22.16-15.25a26.785,26.785,0,0,0-16.339-2.464,12.874,12.874,0,0,1-2.8-.143Z" transform="translate(2.481 19.19)"/><path class="a" d="M107.378,107.335a24.214,24.214,0,0,1,11.7,2.643,58.927,58.927,0,0,1,20.642,14.535,27.7,27.7,0,0,1,7.143,13.982,8.928,8.928,0,0,1-5.357,9.089,5.214,5.214,0,0,1-3.089,0c-4.982-1.786-8.089-5.536-10.714-9.821-3.446-5.607-6.768-11.3-10.375-16.8A24.464,24.464,0,0,0,104.038,110.5c-.5-.161-1.268-1.089-1.2-1.2.482-.732,1.036-1.643,1.786-1.911A7.518,7.518,0,0,1,107.378,107.335Z" transform="translate(0 27.739)"/></g></svg>