<svg xmlns="http://www.w3.org/2000/svg" xmlns:xlink="http://www.w3.org/1999/xlink" width="20.297" height="20.297" viewBox="0 0 20.297 20.297"><defs><style>.a{fill:none;}.b{clip-path:url(#a);}.c{fill:#ffad00;fill-rule:evenodd;}</style><clipPath id="a"><rect class="a" width="20.297" height="20.297"/></clipPath></defs><g class="b" transform="translate(0 0)"><rect class="a" width="20.297" height="20.297"/><path class="c" d="M44.427,18.463a11.735,11.735,0,0,0,11.84-11.84V6.059A9.166,9.166,0,0,0,58.3,3.917a9.361,9.361,0,0,1-2.368.677,4.387,4.387,0,0,0,1.8-2.255A10.343,10.343,0,0,1,55.14,3.353,4.027,4.027,0,0,0,52.1,2a4.237,4.237,0,0,0-4.172,4.172,2.2,2.2,0,0,0,.113.9,11.658,11.658,0,0,1-8.57-4.4A4.318,4.318,0,0,0,38.9,4.819a4.48,4.48,0,0,0,1.8,3.5,3.8,3.8,0,0,1-1.917-.564h0a4.121,4.121,0,0,0,3.383,4.059,3.476,3.476,0,0,1-1.128.113,1.919,1.919,0,0,1-.789-.113A4.272,4.272,0,0,0,44.2,14.742a8.514,8.514,0,0,1-5.187,1.8A3.122,3.122,0,0,1,38,16.434a10.643,10.643,0,0,0,6.427,2.03" transform="translate(-38 0.537)"/></g></svg>