<svg xmlns="http://www.w3.org/2000/svg" xmlns:xlink="http://www.w3.org/1999/xlink" width="20.297" height="20.297" viewBox="0 0 20.297 20.297"><defs><style>.a{fill:none;}.b{clip-path:url(#a);}.c{fill:#ffad00;fill-rule:evenodd;}</style><clipPath id="a"><rect class="a" width="20.297" height="20.297"/></clipPath></defs><g class="b" transform="translate(0 0)"><path class="c" d="M10.149,1.8a31.118,31.118,0,0,1,4.059.113,5.23,5.23,0,0,1,1.917.338,3.96,3.96,0,0,1,1.917,1.917,5.23,5.23,0,0,1,.338,1.917c0,1.015.113,1.353.113,4.059a31.118,31.118,0,0,1-.113,4.059,5.23,5.23,0,0,1-.338,1.917,3.96,3.96,0,0,1-1.917,1.917,5.23,5.23,0,0,1-1.917.338c-1.015,0-1.353.113-4.059.113a31.118,31.118,0,0,1-4.059-.113,5.23,5.23,0,0,1-1.917-.338,3.96,3.96,0,0,1-1.917-1.917,5.23,5.23,0,0,1-.338-1.917c0-1.015-.113-1.353-.113-4.059a31.118,31.118,0,0,1,.113-4.059,5.23,5.23,0,0,1,.338-1.917,4.05,4.05,0,0,1,.789-1.128,1.906,1.906,0,0,1,1.128-.789,5.23,5.23,0,0,1,1.917-.338A31.118,31.118,0,0,1,10.149,1.8m0-1.8A33.318,33.318,0,0,0,5.976.113,6.962,6.962,0,0,0,3.5.564a4.414,4.414,0,0,0-1.8,1.128A4.414,4.414,0,0,0,.564,3.5,5.138,5.138,0,0,0,.113,5.976,33.318,33.318,0,0,0,0,10.149a33.318,33.318,0,0,0,.113,4.172A6.961,6.961,0,0,0,.564,16.8a4.414,4.414,0,0,0,1.128,1.8,4.414,4.414,0,0,0,1.8,1.128,6.961,6.961,0,0,0,2.481.451,33.318,33.318,0,0,0,4.172.113,33.318,33.318,0,0,0,4.172-.113,6.961,6.961,0,0,0,2.481-.451A4.731,4.731,0,0,0,19.733,16.8a6.961,6.961,0,0,0,.451-2.481c0-1.128.113-1.466.113-4.172a33.318,33.318,0,0,0-.113-4.172A6.961,6.961,0,0,0,19.733,3.5a4.414,4.414,0,0,0-1.128-1.8A4.414,4.414,0,0,0,16.8.564,6.961,6.961,0,0,0,14.321.113,33.318,33.318,0,0,0,10.149,0m0,4.962a5.1,5.1,0,0,0-5.187,5.187,5.187,5.187,0,1,0,5.187-5.187m0,8.57a3.322,3.322,0,0,1-3.383-3.383,3.322,3.322,0,0,1,3.383-3.383,3.322,3.322,0,0,1,3.383,3.383,3.322,3.322,0,0,1-3.383,3.383M15.561,3.5a1.24,1.24,0,1,0,1.24,1.24,1.251,1.251,0,0,0-1.24-1.24"/></g></svg>