<svg xmlns="http://www.w3.org/2000/svg" width="176.358" height="131.861" viewBox="0 0 176.358 131.861"><defs><style>.a{fill:#ffad00;}</style></defs><g transform="matrix(0.899, 0.438, -0.438, 0.899, 15.831, -50.637)"><path class="a" d="M153.835,78.673c-17.95.612-33.3,6.082-48.435,11.978C90.423,96.492,75.28,99.072,59.484,95.3c-9.515-2.27-17.888-6.839-23.99-14.661-1.073-1.376-.22-4.259-.255-6.447,1.975.385,4.637.076,5.814,1.252C57.729,92.1,77.083,91.353,97.661,84.927c15.445-4.816,30.863-10.12,46.694-13.189s31.1.764,44.671,10a18.645,18.645,0,0,1,3.289,2.711c2.27,2.47,6.02,5.153,2.552,8.648s-5.628-.619-7.953-2.656C177.041,81.755,164.912,79.657,153.835,78.673Z" transform="translate(0 -9.985)"/><path class="a" d="M154.024,108.876c-18.218.605-33.712,6.192-49.068,12.15-14.8,5.738-29.749,8.18-45.332,4.5-9.522-2.25-17.888-6.791-24.025-14.592-1.1-1.376-.323-4.259-.413-6.447,1.975.323,4.678-.069,5.814,1.087,15.349,15.631,33.657,16.333,53.086,10.609,13.76-4.066,27.21-9.529,41.149-12.948,18.163-4.465,35.968-2.621,52.184,7.671a26.831,26.831,0,0,1,7.2,6.474c1.011,1.376.392,3.942.509,5.972-2.133-.3-5.057.206-6.261-1C178.73,112.241,165.83,110.1,154.024,108.876Z" transform="translate(-0.017 -19.425)"/><path class="a" d="M155.361,46.658c-18.28.777-34.118,6.6-49.859,12.652-14.407,5.5-29.068,7.637-44.21,4.011-9.515-2.284-17.888-6.825-24-14.647-1.087-1.376-.255-4.266-.31-6.453,1.975.372,4.644.041,5.82,1.211,16.9,16.856,36.416,15.913,57.179,9.329,15.225-4.816,30.5-9.914,46.1-13.017,14.929-2.972,29.5.509,42.656,8.655a22.546,22.546,0,0,1,4.417,3.24c2.532,2.628,7.265,5.339,3.44,9.412-3.557,3.8-5.917-.963-8.345-3.007C178.416,49.734,166.5,47.663,155.361,46.658Z" transform="translate(-0.556)"/></g></svg>