<svg xmlns="http://www.w3.org/2000/svg" xmlns:xlink="http://www.w3.org/1999/xlink" width="32" height="32" viewBox="0 0 32 32">
  <defs>
    <clipPath id="clip-path">
      <rect width="32" height="32" fill="none"/>
    </clipPath>
  </defs>
  <g id="ourstory" clip-path="url(#clip-path)">
    <g id="iconfinder_team-people-group_2932353" transform="translate(-14.025 -38.556)">
      <path id="Path_262" data-name="Path 262" d="M30.468,70.174h0a2.673,2.673,0,0,1-2.676-2.488l-.078-1.131A2.673,2.673,0,0,1,30.39,63.7h.156a2.673,2.673,0,0,1,2.667,2.858l-.078,1.131A2.673,2.673,0,0,1,30.468,70.174Z" transform="translate(-8.361 -13.722)" fill="#ffffff"/>
      <path id="Path_263" data-name="Path 263" d="M31.96,63.91h0a3.542,3.542,0,0,0-3.524-3.21H28.28a3.536,3.536,0,0,0-3.53,3.778l.066,1.131a3.545,3.545,0,0,0,3.542,3.3,3.225,3.225,0,0,0,.445-.029,3.493,3.493,0,0,0,1.481-.546,3.571,3.571,0,0,0,1.362-1.657,3.519,3.519,0,0,0,.242-1.065l.078-1.129A3.432,3.432,0,0,0,31.96,63.91Zm-1.732.453-.078,1.129a1.807,1.807,0,0,1-3.6,0l-.075-1.129a1.8,1.8,0,0,1,1.807-1.931h.156a1.807,1.807,0,0,1,1.8,1.931Z" transform="translate(-6.251 -11.588)" fill="#ffffff"/>
      <path id="Path_264" data-name="Path 264" d="M29.555,95.173H19s-.055-3.732,1.013-4.618c.724-.612,2.719-.866,4.639-.8a14.631,14.631,0,0,1,1.8.156,3.937,3.937,0,0,0-.312.82,16.519,16.519,0,0,0-.47,3.591h3.894C29.572,94.82,29.555,95.173,29.555,95.173Z" transform="translate(-2.165 -32.249)" fill="#ffffff"/>
      <path id="Path_265" data-name="Path 265" d="M28.269,92.126H17.7c.066-1.371.323-2.794.69-3.1a7.13,7.13,0,0,1,3.524-.609H22.2a16.026,16.026,0,0,1,1.755.118,3.937,3.937,0,0,1,.312-.82,1.261,1.261,0,0,1,.289-.369,2.118,2.118,0,0,1,.623-.338c-.355-.078-.742-.144-1.155-.2s-.765-.081-1.155-.1a16.591,16.591,0,0,0-2.742.072,5.753,5.753,0,0,0-2.855.918c-1.282,1.082-1.334,4.33-1.319,5.305v.866H28.215l.04-.826c0-.179.017-.43.017-.733C28.272,92.256,28.272,92.186,28.269,92.126Z" transform="translate(0 -30.068)" fill="#ffffff"/>
      <path id="Path_266" data-name="Path 266" d="M83.929,70.167h0a2.673,2.673,0,0,1-2.667-2.489l-.078-1.131a2.673,2.673,0,0,1,2.667-2.858h.162a2.673,2.673,0,0,1,2.667,2.858L86.6,67.679A2.673,2.673,0,0,1,83.929,70.167Z" transform="translate(-46.397 -13.715)" fill="#ffffff"/>
      <path id="Path_267" data-name="Path 267" d="M84.443,61.823a3.556,3.556,0,0,0-2.6-1.123h-.156a3.545,3.545,0,0,0-3.521,3.175,3.465,3.465,0,0,0,0,.6l.078,1.129a3.522,3.522,0,0,0,3.166,3.265,3.088,3.088,0,0,0,.367.02,3.55,3.55,0,0,0,3.53-3.3l.078-1.129A3.556,3.556,0,0,0,84.443,61.823ZM80.379,63a1.79,1.79,0,0,1,1.322-.577h.162a1.807,1.807,0,0,1,1.8,1.931l-.069,1.134a1.807,1.807,0,0,1-3.605,0l-.078-1.129A1.807,1.807,0,0,1,80.379,63Z" transform="translate(-44.247 -11.588)" fill="#ffffff"/>
      <path id="Path_268" data-name="Path 268" d="M82.957,95.162H72.39s0-.352.02-.866h3.908a13.985,13.985,0,0,0-.424-3.622,3.219,3.219,0,0,0-.352-.823,14.379,14.379,0,0,1,1.844-.121,10.106,10.106,0,0,1,4.561.811C83.148,91.349,82.957,95.162,82.957,95.162Z" transform="translate(-40.146 -32.239)" fill="#ffffff"/>
      <path id="Path_269" data-name="Path 269" d="M80.329,87.633A7.031,7.031,0,0,0,77.5,86.8a17.45,17.45,0,0,0-2.653-.121,10.927,10.927,0,0,0-1.25.089,9.951,9.951,0,0,0-1.284.225,3.359,3.359,0,0,1,.866.393.961.961,0,0,1,.251.271,3.218,3.218,0,0,1,.361.84,15.462,15.462,0,0,1,1.579-.089h.17a8.459,8.459,0,0,1,3.8.658c.352.24.621,1.588.647,3.051H69.43V93.85H81.674l.04-.826c0-.182.017-.442.017-.75C81.735,90.88,81.547,88.47,80.329,87.633Z" transform="translate(-38.04 -30.063)" fill="#ffffff"/>
      <path id="Path_270" data-name="Path 270" d="M55.984,45.853a4.52,4.52,0,0,0-3.293-1.443h-.214a4.506,4.506,0,0,0-4.506,4.829l.1,1.538a1.879,1.879,0,0,0,.032.289,4.411,4.411,0,0,0,.358,1.244h0a4.552,4.552,0,0,0,2.54,2.367,4.442,4.442,0,0,0,3.057.029,4.52,4.52,0,0,0,2.627-2.425,4.4,4.4,0,0,0,.343-1.2c.017-.1.026-.211.035-.318l.107-1.538A4.52,4.52,0,0,0,55.984,45.853Zm-.525,3.267-.107,1.538a2.774,2.774,0,0,1-5.536,0L49.7,49.121a2.777,2.777,0,0,1,2.768-2.967h.214a2.78,2.78,0,0,1,2.768,2.967Z" transform="translate(-22.767)" fill="#ffffff"/>
      <path id="Path_271" data-name="Path 271" d="M51.814,83.6a7.1,7.1,0,0,0-.271-.866l-.075-.182a4.061,4.061,0,0,0-.361-.675,2.361,2.361,0,0,0-.289-.367,2.151,2.151,0,0,0-.4-.358,3.675,3.675,0,0,0-.546-.289,7.945,7.945,0,0,0-1.3-.433,18.062,18.062,0,0,0-2.97-.447,23.5,23.5,0,0,0-3.048-.049,16.017,16.017,0,0,0-2.855.4,7.092,7.092,0,0,0-1.264.436,3.124,3.124,0,0,0-.693.43,2.02,2.02,0,0,0-.289.289,2.778,2.778,0,0,0-.289.4,4.388,4.388,0,0,0-.309.644c-.029.066-.055.133-.078.2a7.619,7.619,0,0,0-.266.866,18.081,18.081,0,0,0-.45,3.709v.866h0v.866H52.14l.04-.826a.206.206,0,0,1,0-.04c0-.185.017-.485.017-.866A15.786,15.786,0,0,0,51.814,83.6ZM37.795,87.306a16.519,16.519,0,0,1,.47-3.591,3.937,3.937,0,0,1,.312-.82,1.261,1.261,0,0,1,.289-.369,2.119,2.119,0,0,1,.623-.338,14.03,14.03,0,0,1,4.413-.56,16.971,16.971,0,0,1,4.679.557,3.359,3.359,0,0,1,.866.393.961.961,0,0,1,.251.271,3.219,3.219,0,0,1,.352.834,13.985,13.985,0,0,1,.424,3.622Z" transform="translate(-14.302 -25.248)" fill="#ffffff"/>
    </g>
  </g>
</svg>
