<svg xmlns="http://www.w3.org/2000/svg" xmlns:xlink="http://www.w3.org/1999/xlink" width="19" height="19" viewBox="0 0 19 19"><defs><style>.a{fill:none;}.b{clip-path:url(#a);}.c{fill:#a057bf;fill-rule:evenodd;}</style><clipPath id="a"><rect class="a" width="19" height="19"/></clipPath></defs><g class="b"><g transform="translate(-207 -596)"><rect class="a" width="19" height="19" transform="translate(207 596)"/><path class="c" d="M7.808,11.255A3.309,3.309,0,0,0,11.123,7.94,3.411,3.411,0,0,0,7.808,4.508,3.309,3.309,0,0,0,4.494,7.822,3.494,3.494,0,0,0,7.808,11.255Zm-5.564-9A7.868,7.868,0,0,1,13.372,13.386L7.808,18.95,2.245,13.386A8.083,8.083,0,0,1,2.245,2.258Z" transform="translate(208.163 596.05)"/></g></g></svg>