<svg xmlns="http://www.w3.org/2000/svg" width="396" height="396" viewBox="0 0 396 396"><defs><style>.a{fill:none;opacity:0.16;}.b,.c{stroke:none;}.c{fill:#ffad00;}</style></defs><g class="a"><path class="b" d="M198,0C307.352,0,396,88.648,396,198S307.352,396,198,396,0,307.352,0,198,88.648,0,198,0Z"/><path class="c" d="M 198 100 C 143.9626159667969 100 100 143.9626159667969 100 198 C 100 252.0373840332031 143.9626159667969 296 198 296 C 252.0373840332031 296 296 252.0373840332031 296 198 C 296 143.9626159667969 252.0373840332031 100 198 100 M 198 0 C 307.352294921875 0 396 88.64755249023438 396 198 C 396 307.352294921875 307.352294921875 396 198 396 C 88.64755249023438 396 0 307.352294921875 0 198 C 0 88.64755249023438 88.64755249023438 0 198 0 Z"/></g></svg>