<svg xmlns="http://www.w3.org/2000/svg" xmlns:xlink="http://www.w3.org/1999/xlink" width="236.231" height="100.513" viewBox="0 0 236.231 100.513"><defs><style>.a{fill:none;}.b{clip-path:url(#a);}.c{opacity:0.16;}.d{fill:#a057bf;}</style><clipPath id="a"><rect class="a" width="236.231" height="100.513"/></clipPath></defs><g class="b"><g class="c" transform="translate(-34.95 -38.694)"><path class="d" d="M207.75,82.29c-26.09.89-48.4,8.84-70.4,17.41-21.77,8.49-43.78,12.24-66.74,6.75-13.83-3.3-26-9.94-34.87-21.31-1.56-2-.32-6.19-.37-9.37,2.87.56,6.74.11,8.45,1.82,24.24,24.22,52.37,23.13,82.28,13.79,22.45-7,44.86-14.71,67.87-19.17s45.2,1.11,64.93,14.53a27.1,27.1,0,0,1,4.78,3.94c3.3,3.59,8.75,7.49,3.71,12.57s-8.18-.9-11.56-3.86C241.48,86.77,223.85,83.72,207.75,82.29Z"/><path class="d" d="M208,112.47c-26.48.88-49,9-71.32,17.66-21.51,8.34-43.24,11.89-65.89,6.54-13.84-3.27-26-9.87-34.92-21.21-1.6-2-.47-6.19-.6-9.37,2.87.47,6.8-.1,8.45,1.58,22.31,22.72,48.92,23.74,77.16,15.42,20-5.91,39.55-13.85,59.81-18.82,26.4-6.49,52.28-3.81,75.85,11.15A39,39,0,0,1,267,124.83c1.47,2,.57,5.73.74,8.68-3.1-.43-7.35.3-9.1-1.45C243.91,117.36,225.16,114.25,208,112.47Z"/><path class="d" d="M209.16,50.27c-26.57,1.13-49.59,9.6-72.47,18.39-20.94,8-42.25,11.1-64.26,5.83-13.83-3.32-26-9.92-34.88-21.29-1.58-2-.37-6.2-.45-9.38,2.87.54,6.75.06,8.46,1.76,24.56,24.5,52.93,23.13,83.11,13.56,22.13-7,44.33-14.41,67-18.92,21.7-4.32,42.88.74,62,12.58a32.771,32.771,0,0,1,6.42,4.71c3.68,3.82,10.56,7.76,5,13.68-5.17,5.53-8.6-1.4-12.13-4.37C242.67,54.74,225.35,51.73,209.16,50.27Z"/></g></g></svg>