<svg xmlns="http://www.w3.org/2000/svg" xmlns:xlink="http://www.w3.org/1999/xlink" width="165.18" height="102.819" viewBox="0 0 165.18 102.819"><defs><style>.a{fill:none;}.b{clip-path:url(#a);}.c{fill:#0e9529;}</style><clipPath id="a"><rect class="a" width="165.18" height="102.819"/></clipPath></defs><g class="b" transform="translate(0 0)"><g transform="matrix(-0.966, 0.259, -0.259, -0.966, 165.18, 63.089)"><path class="c" d="M112.288,17.376C95.334,16.8,80.837,11.631,66.541,6.062,52.395.546,38.092-1.891,23.172,1.676,14.186,3.821,6.277,8.135.513,15.524c-1.014,1.3-.208,4.022-.24,6.089,1.865-.364,4.38-.071,5.491-1.183C21.515,4.691,39.795,5.4,59.231,11.469c14.588,4.549,29.151,9.559,44.1,12.457s29.372-.721,42.192-9.442a17.61,17.61,0,0,0,3.106-2.56c2.144-2.333,5.686-4.867,2.411-8.168s-5.315.585-7.512,2.508C134.206,14.465,122.75,16.446,112.288,17.376Z" transform="translate(0 19.61)"/><path class="c" d="M112.416,17.374C95.209,16.8,80.575,11.526,66.071,5.9,52.094.479,37.973-1.828,23.255,1.649,14.261,3.774,6.36,8.062.563,15.431c-1.04,1.3-.305,4.022-.39,6.089,1.865-.305,4.419.065,5.491-1.027C20.162,5.73,37.453,5.067,55.8,10.473c13,3.84,25.7,9,38.865,12.23,17.155,4.217,33.972,2.476,49.288-7.245a25.342,25.342,0,0,0,6.8-6.115c.955-1.3.37-3.723.481-5.64-2.014.279-4.776-.195-5.913.942C135.751,14.2,123.567,16.218,112.416,17.374Z" transform="translate(0.035 0)"/><path class="c" d="M112.046,17.434C94.78,16.7,79.822,11.2,64.954,5.484,51.347.285,37.5-1.729,23.2,1.7,14.21,3.853,6.3,8.142.532,15.53c-1.027,1.3-.24,4.029-.292,6.1,1.865-.351,4.386-.039,5.5-1.144C21.7,4.561,40.131,5.451,59.742,11.67c14.38,4.549,28.806,9.364,43.537,12.294,14.1,2.807,27.864-.481,40.288-8.175a21.294,21.294,0,0,0,4.172-3.061c2.391-2.482,6.862-5.043,3.249-8.889-3.36-3.593-5.588.91-7.882,2.84C133.821,14.529,122.566,16.485,112.046,17.434Z" transform="translate(1.158 40.359)"/></g></g></svg>